PathFileType	4	(X/Y/Z)	C:/Users/opensim2020/Desktop/walking_exp_matlab/subject01_walking16_run.trc																																																																																																																																																																																											
DataRate	CameraRate	NumFrames	NumMarkers	Units	OrigDataRate	OrigDataStartFrame	OrigNumFrames																																																																																																																																																																																							
100	100	5	63	mm	100	370	89																																																																																																																																																																																							
Frame#	Time	LKNE			RELB			LTHI			RUPA			LTIB			RFRM			LTOE			LSHO			RWRA			RSHO			RWRB			STRN			RFIN			RBHD			CLAV			LHEE			LFHD			RASI			RFHD			LBHD			C7			LWRB			LWRA			LFRM			RTHI			RKNE			LELB			LFIN			LUPA			RTIB			RANK			RTOE			RHEE			T10			RBAK			LASI			LPSI			RPSI			LANK			*39			*40			*41			*42			*43			*44			*45			*46			*47			*48			*49			*50			*51			*52			*53			*54			*55			*56			*57			*58			*59			*60			*61			*62		
		X1	Y1	Z1	X2	Y2	Z2	X3	Y3	Z3	X4	Y4	Z4	X5	Y5	Z5	X6	Y6	Z6	X7	Y7	Z7	X8	Y8	Z8	X9	Y9	Z9	X10	Y10	Z10	X11	Y11	Z11	X12	Y12	Z12	X13	Y13	Z13	X14	Y14	Z14	X15	Y15	Z15	X16	Y16	Z16	X17	Y17	Z17	X18	Y18	Z18	X19	Y19	Z19	X20	Y20	Z20	X21	Y21	Z21	X22	Y22	Z22	X23	Y23	Z23	X24	Y24	Z24	X25	Y25	Z25	X26	Y26	Z26	X27	Y27	Z27	X28	Y28	Z28	X29	Y29	Z29	X30	Y30	Z30	X31	Y31	Z31	X32	Y32	Z32	X33	Y33	Z33	X34	Y34	Z34	X35	Y35	Z35	X36	Y36	Z36	X37	Y37	Z37	X38	Y38	Z38	X39	Y39	Z39	X40	Y40	Z40	X41	Y41	Z41	X42	Y42	Z42	X43	Y43	Z43	X44	Y44	Z44	X45	Y45	Z45	X46	Y46	Z46	X47	Y47	Z47	X48	Y48	Z48	X49	Y49	Z49	X50	Y50	Z50	X51	Y51	Z51	X52	Y52	Z52	X53	Y53	Z53	X54	Y54	Z54	X55	Y55	Z55	X56	Y56	Z56	X57	Y57	Z57	X58	Y58	Z58	X59	Y59	Z59	X60	Y60	Z60	X61	Y61	Z61	X62	Y62	Z62	X63	Y63	Z63
																																																																																																																																																																																														
23	0.22	-640.54095	537.91864	-555.22583	-809.68304	1069.33582	-152.09747	-698.64954	654.69043	-571.27631	-797.40088	1199.12036	-163.78397	-619.1026	359.31754	-569.28754	-731.3562	1039.88989	-249.01193	-418.5228	87.63896	-512.2168	-797.67322	1372.19934	-591.2309	-673.25464	1099.37158	-359.3176	-748.97571	1371.65479	-294.88702	-658.90741	1047.48914	-348.76712	-705.25024	1177.95044	-456.83664	-608.72791	1077.22607	-405.83771	-837.5459	1584.72998	-357.25577	-721.75354	1339.92053	-449.40277	-597.2915	127.06212	-461.36331	-757.84326	1646.45581	-492.13171	-835.60803	910.80975	-292.34033	-736.80151	1656.53821	-382.1091	-858.58142	1577.3811	-474.87744	-857.74054	1416.31079	-422.59973	-933.57245	957.65979	-800.09998	-885.53125	968.27454	-766.53906	-976.81927	1074.93713	-785.14069	-991.67609	593.51379	-249.83612	-1058.39258	445.24554	-272.48834	-1020.38416	1184.80579	-748.51099	-867.31152	900.29407	-812.37061	-920.85144	1283.69031	-696.52466	-1236.19727	417.11459	-269.9119	-1435.11707	358.30991	-310.66782	-1490.8313	219.13232	-341.26453	-1461.29675	402.49561	-359.1665	-950.27136	1151.5907	-397.28116	-935.1936	1245.75586	-329.89764	-816.63647	927.09961	-496.67368	-992.21222	968.51672	-466.74261	-994.52728	979.05615	-328.6734	-562.57367	144.57825	-518.88013	1973.21289	1023.56781	-3101.89795	2012.55505	1022.19446	-3140.78101	-925.41498	1248.00024	-318.82901	NaN	NaN	NaN	NaN	NaN	NaN	NaN	NaN	NaN	NaN	NaN	NaN	NaN	NaN	NaN	NaN	NaN	NaN	NaN	NaN	NaN	-759.18835	1690.45447	-402.6127	NaN	NaN	NaN	NaN	NaN	NaN	NaN	NaN	NaN	NaN	NaN	NaN	NaN	NaN	NaN	NaN	NaN	NaN	NaN	NaN	NaN	NaN	NaN	NaN	NaN	NaN	NaN	NaN	NaN	NaN	NaN	NaN	NaN	NaN	NaN	NaN	NaN	NaN	NaN
24	0.23	-600.57623	525.94348	-557.31744	-776.51874	1071.45862	-148.5027	-658.94409	640.91138	-575.55292	-760.90643	1201.31836	-163.28839	-584.89508	347.55704	-570.15521	-697.2699	1030.27063	-241.7986	-391.20963	69.77028	-508.51245	-749.82837	1367.16321	-594.49371	-632.01318	1080.08972	-353.37363	-704.07526	1369.10083	-297.25189	-621.20691	1027.802	-339.40234	-658.26276	1175.12268	-456.55814	-568.46375	1051.21655	-397.27597	-791.04089	1582.82446	-361.27682	-676.27246	1337.3468	-450.34158	-569.34711	115.63914	-462.30692	-710.52716	1643.66272	-496.13116	-784.67975	909.90027	-295.02444	-689.93677	1654.18127	-385.97345	-811.58618	1575.01196	-478.96771	-810.96448	1414.43079	-426.73285	-864.07117	944.17285	-798.86713	-817.2522	957.99042	-764.77856	-912.82068	1059.25269	-787.31213	-929.4455	587.27887	-249.00842	-993.21375	438.21457	-272.38779	-962.56873	1166.99353	-754.32513	-794.95453	890.11005	-808.72723	-867.67853	1270.42078	-702.86603	-1172.16443	419.94312	-271.71417	-1373.36682	377.15466	-314.76819	-1436.79236	241.58603	-345.47891	-1397.67627	423.33676	-363.63516	-903.48828	1150.55859	-401.06912	-888.64014	1244.08142	-333.49713	-769.20923	924.13959	-499.80502	-944.54462	963.23987	-466.65302	-944.16858	974.10004	-328.18509	-533.7124	131.71559	-519.46918	1973.08032	1023.68646	-3102.09619	2012.45032	1022.14703	-3140.7832	NaN	NaN	NaN	-880.43732	1247.93738	-322.69553	NaN	NaN	NaN	NaN	NaN	NaN	NaN	NaN	NaN	NaN	NaN	NaN	NaN	NaN	NaN	NaN	NaN	NaN	-712.11908	1688.16052	-406.94119	NaN	NaN	NaN	NaN	NaN	NaN	NaN	NaN	NaN	NaN	NaN	NaN	NaN	NaN	NaN	NaN	NaN	NaN	NaN	NaN	NaN	NaN	NaN	NaN	NaN	NaN	NaN	NaN	NaN	NaN	NaN	NaN	NaN	NaN	NaN	NaN	NaN	NaN	NaN
25	0.24	-560.7757	516.76538	-558.17993	-744.36212	1073.63416	-144.55348	-619.83252	630.2984	-579.08978	-725.68365	1202.96423	-163.03676	-553.71552	334.44363	-570.55878	-664.59088	1020.27423	-232.93825	-372.89532	48.30761	-505.17468	-702.34497	1360.84521	-597.74939	-592.69086	1058.62573	-345.504	-660.17316	1365.84082	-299.31494	-585.25989	1006.89221	-327.50195	-610.99469	1170.93433	-456.09949	-529.80042	1023.68793	-385.06082	-744.64838	1579.97241	-365.10822	-630.19623	1333.53723	-451.70786	-548.68475	103.23866	-462.31268	-663.32123	1640.03748	-499.84851	-733.69562	908.07562	-297.76361	-643.08258	1650.72913	-389.65039	-764.73871	1571.92883	-482.92731	-764.68695	1411.31787	-430.92505	-791.66437	930.13696	-796.86975	-746.43756	947.65381	-762.14282	-847.24713	1042.46045	-789.07709	-867.42755	580.9892	-247.97243	-926.39618	429.7673	-271.82053	-903.35498	1147.55884	-760.01129	-719.51233	880.20685	-803.62524	-814.05249	1256.20337	-709.01752	-1105.57764	420.9556	-273.99658	-1308.69397	393.41394	-318.47067	-1377.31909	260.82193	-349.40991	-1330.68713	440.81207	-367.90585	-856.73181	1147.77563	-405.02249	-842.58521	1241.17371	-337.15576	-721.73846	919.93378	-503.77643	-897.29529	956.63702	-466.81958	-894.42493	967.51166	-327.37534	-511.94479	117.51218	-519.10822	1973.1853	1023.5957	-3101.86621	2012.52344	1022.2179	-3140.71704	-835.52557	1246.54492	-326.7146	NaN	NaN	NaN	NaN	NaN	NaN	NaN	NaN	NaN	NaN	NaN	NaN	NaN	NaN	NaN	NaN	NaN	NaN	NaN	NaN	NaN	-664.66254	1684.71155	-410.99942	NaN	NaN	NaN	NaN	NaN	NaN	NaN	NaN	NaN	NaN	NaN	NaN	NaN	NaN	NaN	NaN	NaN	NaN	NaN	NaN	NaN	NaN	NaN	NaN	NaN	NaN	NaN	NaN	NaN	NaN	NaN	NaN	NaN	NaN	NaN	NaN	NaN	NaN	NaN
26	0.25	-522.44879	508.89859	-558.11615	-712.53015	1075.44653	-141.24509	-580.58307	622.18091	-580.15045	-691.33154	1204.01636	-163.11363	-524.72748	320.91037	-570.62256	-632.45129	1010.60126	-222.28308	-354.95227	33.49306	-504.04309	-655.09357	1353.50061	-601.10944	-555.60413	1035.72754	-335.64243	-616.65637	1362.39282	-300.81885	-551.19031	985.18353	-313.24161	-563.4989	1165.47461	-455.34991	-492.48163	994.63818	-369.25336	-698.29932	1576.24658	-368.74481	-583.90417	1328.55554	-453.09088	-536.15552	88.75932	-461.7616	-616.2757	1635.69604	-503.40463	-683.23566	905.10876	-300.5994	-596.37244	1646.49048	-393.03555	-718.07471	1568.13831	-486.59369	-718.88116	1406.6189	-435.28214	-716.41901	916.4726	-793.67615	-673.59033	937.9809	-758.3205	-779.79236	1024.86328	-790.3501	-805.45953	574.24988	-247.44229	-858.26459	420.37036	-271.92612	-842.57434	1126.72095	-765.2486	-641.33258	871.38727	-797.21271	-760.13293	1240.9519	-714.61438	-1036.57019	420.89111	-275.9335	-1239.93542	406.24536	-321.68152	-1314.07935	276.21552	-351.91638	-1260.172	454.45898	-371.90704	-809.83502	1142.9729	-408.8497	-797.00201	1236.68005	-340.97931	-674.99902	914.42242	-507.89719	-850.34351	949.05511	-467.17828	-845.58624	959.64185	-326.41837	-496.95303	101.75159	-517.64117	1973.08813	1023.48431	-3101.9646	2012.51794	1022.00287	-3140.72681	NaN	NaN	NaN	-790.72125	1243.28784	-331.2634	NaN	NaN	NaN	NaN	NaN	NaN	NaN	NaN	NaN	NaN	NaN	NaN	NaN	NaN	NaN	NaN	NaN	NaN	-617.04535	1680.30334	-414.8627	NaN	NaN	NaN	NaN	NaN	NaN	NaN	NaN	NaN	NaN	NaN	NaN	NaN	NaN	NaN	NaN	NaN	NaN	NaN	NaN	NaN	NaN	NaN	NaN	NaN	NaN	NaN	NaN	NaN	NaN	NaN	NaN	NaN	NaN	NaN	NaN	NaN	NaN	NaN
27	0.26	-486.40735	498.72168	-559.46967	-680.95123	1077.11792	-138.23726	-540.94	614.6629	-578.94641	-657.42786	1204.49866	-163.65884	-498.65451	306.19617	-568.96381	-601.75702	1001.27191	-211.5249	-341.45398	30.24241	-501.92429	-607.68073	1345.28662	-604.67029	-520.4032	1011.89404	-323.9928	-573.45746	1358.41699	-301.612	-519.07031	963.20856	-297.0921	-515.86316	1159.19226	-454.23483	-458.43246	965.01245	-350.15396	-652.26367	1571.65967	-372.28848	-537.38843	1322.43518	-454.30966	-536.79376	68.46799	-462.99448	-569.54376	1630.62646	-506.85779	-633.75732	900.68427	-304.34113	-549.9101	1641.45337	-396.35065	-671.61688	1563.42737	-490.22192	-673.43341	1400.34082	-439.85767	-639.02966	903.09161	-789.09918	-598.95093	928.99408	-753.1048	-710.2663	1006.7309	-790.64734	-743.16669	566.78839	-247.54822	-787.63202	411.02097	-271.82816	-780.39386	1104.9386	-770.17987	-560.57971	864.42865	-788.82806	-705.94196	1224.58179	-719.51648	-964.59375	419.41544	-277.3855	-1167.47534	415.21646	-323.7868	-1244.29663	287.858	-351.89703	-1186.30969	464.20905	-374.70193	-762.95654	1136.27942	-412.26633	-751.77661	1230.60742	-345.02124	-629.57458	908.53363	-511.73361	-804.21039	940.87421	-467.86694	-798.02582	950.63348	-325.35599	-490.96854	85.89397	-512.00989	1973.23914	1023.35352	-3101.96143	2012.58923	1021.99884	-3140.6377	-746.03668	1237.77332	-336.57785	NaN	NaN	NaN	NaN	NaN	NaN	NaN	NaN	NaN	NaN	NaN	NaN	NaN	NaN	NaN	NaN	NaN	NaN	NaN	NaN	NaN	-569.59131	1675.21436	-418.36713	NaN	NaN	NaN	NaN	NaN	NaN	NaN	NaN	NaN	NaN	NaN	NaN	NaN	NaN	NaN	NaN	NaN	NaN	NaN	NaN	NaN	NaN	NaN	NaN	NaN	NaN	NaN	NaN	NaN	NaN	NaN	NaN	NaN	NaN	NaN	NaN	NaN	NaN	NaN
